STARTFONT 2.1
COMMENT
COMMENT Converted from OpenType font "Q:\font stuff\winfont\Querround Regular.ttf" by "otf2bdf 3.0".
COMMENT
FONT -FreeType-Querround-Medium-R-Normal--33-330-72-72-P-243-ISO10646-1
SIZE 33 72 72
FONTBOUNDINGBOX 51 47 -8 -10
STARTPROPERTIES 19
FOUNDRY "FreeType"
FAMILY_NAME "Querround"
WEIGHT_NAME "Medium"
SLANT "R"
SETWIDTH_NAME "Normal"
ADD_STYLE_NAME ""
PIXEL_SIZE 38
POINT_SIZE 330
RESOLUTION_X 72
RESOLUTION_Y 72
SPACING "P"
AVERAGE_WIDTH 243
CHARSET_REGISTRY "ISO10646"
CHARSET_ENCODING "1"
FONT_ASCENT 40
FONT_DESCENT 12
COPYRIGHT "design: onezero/\2512003onezero/contact: onezero@gmx.ch"
_OTF_FONTFILE "Q:\font stuff\winfont\Querround Regular.ttf"
_OTF_PSNAME "Querround"
ENDPROPERTIES
CHARS 106
STARTCHAR 0020
ENCODING 32
SWIDTH 818 0
DWIDTH 27 0
BBX 0 0 0 0
BITMAP
ENDCHAR
STARTCHAR 0021
ENCODING 33
SWIDTH 181 0
DWIDTH 6 0
BBX 3 27 0 0
BITMAP
E0
E0
E0
E0
E0
E0
E0
E0
E0
E0
E0
E0
E0
E0
E0
E0
E0
E0
E0
E0
00
00
E0
E0
E0
E0
E0
ENDCHAR
STARTCHAR 0022
ENCODING 34
SWIDTH 333 0
DWIDTH 11 0
BBX 8 10 0 17
BITMAP
E7
E7
E7
E7
E7
E7
E7
E7
E7
E7
ENDCHAR
STARTCHAR 0023
ENCODING 35
SWIDTH 1333 0
DWIDTH 44 0
BBX 0 0 0 0
BITMAP
ENDCHAR
STARTCHAR 0024
ENCODING 36
SWIDTH 1333 0
DWIDTH 44 0
BBX 0 0 0 0
BITMAP
ENDCHAR
STARTCHAR 0025
ENCODING 37
SWIDTH 1181 0
DWIDTH 39 0
BBX 0 0 0 0
BITMAP
ENDCHAR
STARTCHAR 0026
ENCODING 38
SWIDTH 1515 0
DWIDTH 50 0
BBX 0 0 0 0
BITMAP
ENDCHAR
STARTCHAR 0027
ENCODING 39
SWIDTH 181 0
DWIDTH 6 0
BBX 3 10 0 17
BITMAP
E0
E0
E0
E0
E0
E0
E0
E0
E0
E0
ENDCHAR
STARTCHAR 0028
ENCODING 40
SWIDTH 333 0
DWIDTH 11 0
BBX 8 46 0 -9
BITMAP
0F
3F
7F
70
E0
E0
E0
E0
E0
E0
E0
E0
E0
E0
E0
E0
E0
E0
E0
E0
E0
E0
E0
E0
E0
E0
E0
E0
E0
E0
E0
E0
E0
E0
E0
E0
E0
E0
E0
E0
E0
E0
F0
7F
3F
0F
ENDCHAR
STARTCHAR 0029
ENCODING 41
SWIDTH 333 0
DWIDTH 11 0
BBX 8 46 0 -9
BITMAP
F0
FC
FE
1E
07
07
07
07
07
07
07
07
07
07
07
07
07
07
07
07
07
07
07
07
07
07
07
07
07
07
07
07
07
07
07
07
07
07
07
07
07
07
1E
FE
FC
F0
ENDCHAR
STARTCHAR 002A
ENCODING 42
SWIDTH 1181 0
DWIDTH 39 0
BBX 0 0 0 0
BITMAP
ENDCHAR
STARTCHAR 002B
ENCODING 43
SWIDTH 1181 0
DWIDTH 39 0
BBX 0 0 0 0
BITMAP
ENDCHAR
STARTCHAR 002C
ENCODING 44
SWIDTH 181 0
DWIDTH 6 0
BBX 3 6 0 -3
BITMAP
E0
E0
E0
E0
E0
E0
ENDCHAR
STARTCHAR 002D
ENCODING 45
SWIDTH 575 0
DWIDTH 19 0
BBX 16 3 0 12
BITMAP
FFFF
FFFF
FFFF
ENDCHAR
STARTCHAR 002E
ENCODING 46
SWIDTH 181 0
DWIDTH 6 0
BBX 3 3 0 0
BITMAP
E0
E0
E0
ENDCHAR
STARTCHAR 002F
ENCODING 47
SWIDTH 969 0
DWIDTH 32 0
BBX 32 27 0 1
BITMAP
0000001F
0000003C
00000078
000000F0
000001E0
000003C0
00000780
00000F00
00001E00
00003C00
00007800
0000F000
0001E000
0003C000
00078000
000F0000
001E0000
003C0000
00780000
01F00000
03E00000
07C00000
0F800000
1F000000
3E000000
7C000000
F8000000
ENDCHAR
STARTCHAR 0030
ENCODING 48
SWIDTH 1121 0
DWIDTH 37 0
BBX 34 27 0 0
BITMAP
0FFFFFFC00
3FFFFFFF00
7FFFFFFF80
7000000380
E0000001C0
E0000001C0
E00003E1C0
E00007C1C0
E0000F81C0
E0001F01C0
E0003E01C0
E0007C01C0
E000F001C0
E001E001C0
E003C001C0
E0078001C0
E00F0001C0
E01E0001C0
E03C0001C0
E0780001C0
E0F00001C0
E0000001C0
E0000001C0
7000000380
7FFFFFFF80
3FFFFFFF00
0FFFFFFC00
ENDCHAR
STARTCHAR 0031
ENCODING 49
SWIDTH 636 0
DWIDTH 21 0
BBX 18 27 0 0
BITMAP
FFFC00
FFFF00
FFFF80
000380
0001C0
0001C0
0001C0
0001C0
0001C0
0001C0
0001C0
0001C0
0001C0
0001C0
0001C0
0001C0
0001C0
0001C0
0001C0
0001C0
0001C0
0001C0
0001C0
0001C0
0001C0
0001C0
0001C0
ENDCHAR
STARTCHAR 0032
ENCODING 50
SWIDTH 1121 0
DWIDTH 37 0
BBX 34 27 0 0
BITMAP
FFFFFFFC00
FFFFFFFF00
FFFFFFFF80
0000000380
00000001C0
00000001C0
00000001C0
00000001C0
0000000380
0000003F80
000001FF00
00001FFC00
0001FFE000
001FFE0000
01FFE00000
0FFE000000
3FE0000000
7F00000000
7000000000
E000000000
E000000000
E000000000
E000000000
7000000000
7FFFFFFFC0
3FFFFFFFC0
0FFFFFFFC0
ENDCHAR
STARTCHAR 0033
ENCODING 51
SWIDTH 1121 0
DWIDTH 37 0
BBX 34 27 0 0
BITMAP
FFFFFFFC00
FFFFFFFF00
FFFFFFFF80
0000000380
00000001C0
00000001C0
00000001C0
00000001C0
00000001C0
00000001C0
00000001C0
00000001C0
FFFFFFFFC0
FFFFFFFFC0
FFFFFFFFC0
00000001C0
00000001C0
00000001C0
00000001C0
00000001C0
00000001C0
00000001C0
00000001C0
0000000380
FFFFFFFF80
FFFFFFFF00
FFFFFFFC00
ENDCHAR
STARTCHAR 0034
ENCODING 52
SWIDTH 1121 0
DWIDTH 37 0
BBX 34 27 0 0
BITMAP
E0000001C0
E0000001C0
E0000001C0
E0000001C0
E0000001C0
E0000001C0
E0000001C0
E0000001C0
E0000001C0
E0000001C0
E0000001C0
E0000001C0
E0000001C0
E0000001C0
E0000001C0
E0000001C0
E0000001C0
70000001C0
7FFFFFFFC0
3FFFFFFFC0
0FFFFFFFC0
00000001C0
00000001C0
00000001C0
00000001C0
00000001C0
00000001C0
ENDCHAR
STARTCHAR 0035
ENCODING 53
SWIDTH 1121 0
DWIDTH 37 0
BBX 34 27 0 0
BITMAP
0FFFFFFFC0
3FFFFFFFC0
7FFFFFFFC0
7000000000
E000000000
E000000000
E000000000
E000000000
7000000000
7FFFFFFC00
3FFFFFFF00
0FFFFFFF80
0000000380
00000001C0
00000001C0
00000001C0
00000001C0
00000001C0
00000001C0
00000001C0
00000001C0
00000001C0
00000001C0
0000000380
FFFFFFFF80
FFFFFFFF00
FFFFFFFC00
ENDCHAR
STARTCHAR 0036
ENCODING 54
SWIDTH 1121 0
DWIDTH 37 0
BBX 34 27 0 0
BITMAP
0380000000
0380000000
0380000000
0380000000
0380000000
0380000000
03FFFFFC00
07FFFFFF00
0FFFFFFF80
1E00000380
3C000001C0
78000001C0
F0000001C0
E0000001C0
E0000001C0
E0000001C0
E0000001C0
E0000001C0
E0000001C0
E0000001C0
E0000001C0
E0000001C0
E0000001C0
7000000380
7FFFFFFF80
3FFFFFFF00
0FFFFFFC00
ENDCHAR
STARTCHAR 0037
ENCODING 55
SWIDTH 1121 0
DWIDTH 37 0
BBX 33 27 0 0
BITMAP
FFFFFFF800
FFFFFFFE00
FFFFFFFF00
0000000780
0000000380
0000000380
0000000380
0000000780
0000000F00
0000001F00
0000003E00
0000007C00
000000F800
000001F000
000001E000
000003C000
0000078000
00000F0000
00001E0000
00003C0000
0000380000
0000380000
0000380000
0000380000
0000380000
0000380000
0000380000
ENDCHAR
STARTCHAR 0038
ENCODING 56
SWIDTH 1121 0
DWIDTH 37 0
BBX 34 27 0 0
BITMAP
0FFFFFFC00
3FFFFFFF00
7FFFFFFF80
7000000380
E0000001C0
E0000001C0
E0000001C0
E0000001C0
E0000001C0
E0000001C0
E0000001C0
7000000380
7FFFFFFF80
3FFFFFFF00
7FFFFFFF80
7000000380
E0000001C0
E0000001C0
E0000001C0
E0000001C0
E0000001C0
E0000001C0
E0000001C0
7000000380
7FFFFFFF80
3FFFFFFF00
0FFFFFFC00
ENDCHAR
STARTCHAR 0039
ENCODING 57
SWIDTH 1121 0
DWIDTH 37 0
BBX 34 27 0 0
BITMAP
0FFFFFFC00
3FFFFFFF00
7FFFFFFF80
7000000380
E0000001C0
E0000001C0
E0000001C0
E0000001C0
E0000001C0
E0000001C0
E0000001C0
E0000001C0
E0000001C0
E0000003C0
E000000780
E000000F00
E000001E00
7000003C00
7FFFFFF800
3FFFFFF000
0FFFFFE000
000000E000
000000E000
000000E000
000000E000
000000E000
000000E000
ENDCHAR
STARTCHAR 003A
ENCODING 58
SWIDTH 181 0
DWIDTH 6 0
BBX 3 15 0 0
BITMAP
E0
E0
E0
00
00
00
00
00
00
00
00
00
E0
E0
E0
ENDCHAR
STARTCHAR 003B
ENCODING 59
SWIDTH 181 0
DWIDTH 6 0
BBX 3 18 0 -3
BITMAP
E0
E0
E0
00
00
00
00
00
00
00
00
00
E0
E0
E0
E0
E0
E0
ENDCHAR
STARTCHAR 003C
ENCODING 60
SWIDTH 818 0
DWIDTH 27 0
BBX 0 0 0 0
BITMAP
ENDCHAR
STARTCHAR 003D
ENCODING 61
SWIDTH 1181 0
DWIDTH 39 0
BBX 0 0 0 0
BITMAP
ENDCHAR
STARTCHAR 003E
ENCODING 62
SWIDTH 818 0
DWIDTH 27 0
BBX 0 0 0 0
BITMAP
ENDCHAR
STARTCHAR 003F
ENCODING 63
SWIDTH 1121 0
DWIDTH 37 0
BBX 34 27 0 0
BITMAP
FFFFFFFC00
FFFFFFFF00
FFFFFFFF80
0000000380
00000001C0
00000001C0
00000001C0
00000001C0
00000001C0
00000001C0
00000001C0
0000000380
0FFFFFFF80
3FFFFFFF00
7FFFFFFC00
F000000000
E000000000
E000000000
E000000000
E000000000
0000000000
0000000000
E000000000
E000000000
E000000000
E000000000
E000000000
ENDCHAR
STARTCHAR 0040
ENCODING 64
SWIDTH 1121 0
DWIDTH 37 0
BBX 34 27 0 0
BITMAP
0FFFFFFC00
3FFFFFFF00
7FFFFFFF80
7000000380
E0000001C0
E0000001C0
E0FFFF01C0
E0FFFF81C0
E0FFFFC1C0
E003C1C1C0
E00781C1C0
E00F01C1C0
E01E01C1C0
E03C01C1C0
E07801C1C0
E0F001C1C0
E0E001C1C0
E0E001C380
E0FFFFFF80
E07FFFFF00
E03FFFFC00
E000000000
E000000000
7000000000
7FFFFFFFC0
3FFFFFFFC0
0FFFFFFFC0
ENDCHAR
STARTCHAR 0041
ENCODING 65
SWIDTH 1121 0
DWIDTH 37 0
BBX 34 27 0 0
BITMAP
FFFFFFFC00
FFFFFFFF00
FFFFFFFF80
0001F00380
0003E001C0
0007C001C0
000F8001C0
001F0001C0
003E0001C0
007C0001C0
00F80001C0
01F00001C0
03E00001C0
07C00001C0
0F000001C0
1E000001C0
3C000001C0
78000001C0
70000001C0
E0000001C0
E0000001C0
E0000001C0
E0000001C0
7000000380
7FFFFFFF80
3FFFFFFF00
0FFFFFFC00
ENDCHAR
STARTCHAR 0042
ENCODING 66
SWIDTH 1121 0
DWIDTH 37 0
BBX 34 37 0 0
BITMAP
E000000000
E000000000
E000000000
E000000000
E000000000
E000000000
E000000000
E000000000
E000000000
E000000000
FFFFFFE000
FFFFFFF000
FFFFFFF800
E000003C00
E000001F00
E000000F80
E000000780
E0000003C0
E0000001C0
E0000001C0
E0000001C0
E0000001C0
E0000001C0
E0000001C0
E0000001C0
E0000001C0
E0000001C0
E0000001C0
E0000001C0
E0000001C0
E0000001C0
E0000001C0
E0000001C0
7000000380
7FFFFFFF80
3FFFFFFF00
0FFFFFFC00
ENDCHAR
STARTCHAR 0043
ENCODING 67
SWIDTH 1121 0
DWIDTH 37 0
BBX 34 27 0 0
BITMAP
0FFFFFFFC0
3FFFFFFFC0
7FFFFFFFC0
7000000000
E000000000
E000000000
E000000000
E000000000
E000000000
E000000000
E000000000
E000000000
E000000000
E000000000
E000000000
E000000000
E000000000
E000000000
E000000000
E000000000
E000000000
E000000000
E000000000
7000000000
7FFFFFFFC0
3FFFFFFFC0
0FFFFFFFC0
ENDCHAR
STARTCHAR 0044
ENCODING 68
SWIDTH 1121 0
DWIDTH 37 0
BBX 34 37 0 0
BITMAP
00000001C0
00000001C0
00000001C0
00000001C0
00000001C0
00000001C0
00000001C0
00000001C0
00000001C0
00000001C0
01FFFFFFC0
03FFFFFFC0
07FFFFFFC0
1F000001C0
3E000001C0
7C000001C0
78000001C0
F0000001C0
E0000001C0
E0000001C0
E0000001C0
E0000001C0
E0000001C0
E0000001C0
E0000001C0
E0000001C0
E0000001C0
E0000001C0
E0000001C0
E0000001C0
E0000001C0
E0000001C0
E0000001C0
7000000380
7FFFFFFF80
3FFFFFFF00
0FFFFFFC00
ENDCHAR
STARTCHAR 0045
ENCODING 69
SWIDTH 1121 0
DWIDTH 37 0
BBX 34 27 0 0
BITMAP
0FFFFFFC00
3FFFFFFF00
7FFFFFFF80
7000000380
E0000001C0
E0000001C0
E0000001C0
E0000001C0
E000000380
E000000780
E000000F00
E000001E00
E000003C00
E000007800
E00001F000
E00003E000
E00007C000
E0000F8000
E0001F0000
E0003E0000
E000780000
E000F00000
E001E00000
7003C00000
7FFFFFFFC0
3FFFFFFFC0
0FFFFFFFC0
ENDCHAR
STARTCHAR 0046
ENCODING 70
SWIDTH 1121 0
DWIDTH 37 0
BBX 34 27 0 0
BITMAP
0FFFFFFFC0
3FFFFFFFC0
7FFFFFFFC0
7000000000
E000000000
E000000000
E000000000
E000000000
E000000000
E000000000
E000000000
E000000000
E000000000
E000000000
E000000000
E000000000
E000000000
E000000000
FFFFFFFFC0
FFFFFFFFC0
FFFFFFFFC0
E000000000
E000000000
E000000000
E000000000
E000000000
E000000000
ENDCHAR
STARTCHAR 0047
ENCODING 71
SWIDTH 1121 0
DWIDTH 37 0
BBX 34 35 0 -8
BITMAP
0FFFFFFC00
3FFFFFFF00
7FFFFFFF80
7000000380
E0000001C0
E0000001C0
E0000001C0
E0000001C0
E0000001C0
E0000001C0
E0000001C0
E0000001C0
E0000001C0
E0000001C0
E0000001C0
E0000001C0
E0000001C0
E0000001C0
E0000001C0
E0000001C0
E0000001C0
E0000001C0
E0000001C0
70000001C0
7FFFFFFFC0
3FFFFFFFC0
0FFFFFFFC0
00000001C0
00000001C0
00000001C0
00000001C0
0000000380
FFFFFFFF80
FFFFFFFF00
FFFFFFFC00
ENDCHAR
STARTCHAR 0048
ENCODING 72
SWIDTH 1121 0
DWIDTH 37 0
BBX 34 37 0 0
BITMAP
E000000000
E000000000
E000000000
E000000000
E000000000
E000000000
E000000000
E000000000
E000000000
E000000000
FFFFFFE000
FFFFFFF000
FFFFFFF800
E000003C00
E000001F00
E000000F80
E000000780
E0000003C0
E0000001C0
E0000001C0
E0000001C0
E0000001C0
E0000001C0
E0000001C0
E0000001C0
E0000001C0
E0000001C0
E0000001C0
E0000001C0
E0000001C0
E0000001C0
E0000001C0
E0000001C0
E0000001C0
E0000001C0
E0000001C0
E0000001C0
ENDCHAR
STARTCHAR 0049
ENCODING 73
SWIDTH 181 0
DWIDTH 6 0
BBX 3 37 0 0
BITMAP
E0
E0
E0
E0
E0
00
00
00
00
00
E0
E0
E0
E0
E0
E0
E0
E0
E0
E0
E0
E0
E0
E0
E0
E0
E0
E0
E0
E0
E0
E0
E0
E0
E0
E0
E0
ENDCHAR
STARTCHAR 004A
ENCODING 74
SWIDTH 242 0
DWIDTH 8 0
BBX 13 47 -8 -10
BITMAP
0038
0038
0038
0038
0038
0000
0000
0000
0000
0000
0038
0038
0038
0038
0038
0038
0038
0038
0038
0038
0038
0038
0038
0038
0038
0038
0038
0038
0038
0038
0038
0038
0038
0038
0038
0038
0070
00F0
01E0
03C0
0780
0F00
3E00
7C00
F800
7000
2000
ENDCHAR
STARTCHAR 004B
ENCODING 75
SWIDTH 1242 0
DWIDTH 41 0
BBX 39 37 0 0
BITMAP
E000000000
E000000000
E000000000
E000000000
E000000000
E000000000
E000000000
E000000000
E000000000
E000000000
E0000000FE
E0000003FE
E0000007FE
E000000F00
E000001E00
E000003C00
E000007800
E00000F000
E00001F000
E00003F800
E00007BC00
E0000F1E00
E0001E0F00
E0003C0780
E0007803C0
E000F001E0
E001E000F0
E003C00078
E00780003C
E00F00001C
E01E00001C
E03C00001C
E07800001C
70F000001C
7FE000001C
3FC000001C
0F8000001C
ENDCHAR
STARTCHAR 004C
ENCODING 76
SWIDTH 1121 0
DWIDTH 37 0
BBX 34 27 0 0
BITMAP
E000000000
E000000000
E000000000
E000000000
E000000000
E000000000
E000000000
E000000000
E000000000
E000000000
E000000000
E000000000
E000000000
E000000000
E000000000
E000000000
E000000000
E000000000
E000000000
E000000000
E000000000
E000000000
E000000000
7000000000
7FFFFFFFC0
3FFFFFFFC0
0FFFFFFFC0
ENDCHAR
STARTCHAR 004D
ENCODING 77
SWIDTH 1393 0
DWIDTH 46 0
BBX 43 27 0 0
BITMAP
0FFFFFFFFE00
3FFFFFFFFF80
7FFFFFFFFFC0
70000E0001C0
E0000E0000E0
E0000E0000E0
E0000E0000E0
E0000E0000E0
E0000E0000E0
E0000E0000E0
E0000E0000E0
E0000E0000E0
E0000E0000E0
E0000E0000E0
E0000E0000E0
E0000E0000E0
E0000E0000E0
E0000E0000E0
E0000E0000E0
E0000E0000E0
E0000E0000E0
E0000E0000E0
E0000E0000E0
E0000E0000E0
E0000E0000E0
E0000E0000E0
E0000E0000E0
ENDCHAR
STARTCHAR 004E
ENCODING 78
SWIDTH 1121 0
DWIDTH 37 0
BBX 34 27 0 0
BITMAP
0FFFFFFC00
3FFFFFFF00
7FFFFFFF80
7000000380
E0000001C0
E0000001C0
E0000001C0
E0000001C0
E0000001C0
E0000001C0
E0000001C0
E0000001C0
E0000001C0
E0000001C0
E0000001C0
E0000001C0
E0000001C0
E0000001C0
E0000001C0
E0000001C0
E0000001C0
E0000001C0
E0000001C0
E0000001C0
E0000001C0
E0000001C0
E0000001C0
ENDCHAR
STARTCHAR 004F
ENCODING 79
SWIDTH 1121 0
DWIDTH 37 0
BBX 34 27 0 0
BITMAP
0FFFFFFC00
3FFFFFFF00
7FFFFFFF80
7000000380
E0000001C0
E0000001C0
E0000001C0
E0000001C0
E0000001C0
E0000001C0
E0000001C0
E0000001C0
E0000001C0
E0000001C0
E0000001C0
E0000001C0
E0000001C0
E0000001C0
E0000001C0
E0000001C0
E0000001C0
E0000001C0
E0000001C0
7000000380
7FFFFFFF80
3FFFFFFF00
0FFFFFFC00
ENDCHAR
STARTCHAR 0050
ENCODING 80
SWIDTH 1121 0
DWIDTH 37 0
BBX 34 35 0 -8
BITMAP
0FFFFFFC00
3FFFFFFF00
7FFFFFFF80
7000000380
E0000001C0
E0000001C0
E0000001C0
E0000001C0
E0000001C0
E0000001C0
E0000001C0
E0000001C0
E0000001C0
E0000001C0
E0000001C0
E0000001C0
E0000001C0
E0000001C0
E0000001C0
E0000001C0
E0000001C0
E0000001C0
E0000001C0
E000000380
FFFFFFFF80
FFFFFFFF00
FFFFFFFC00
E000000000
E000000000
E000000000
E000000000
E000000000
E000000000
E000000000
E000000000
ENDCHAR
STARTCHAR 0051
ENCODING 81
SWIDTH 1121 0
DWIDTH 37 0
BBX 34 27 0 0
BITMAP
0FFFFFFC00
3FFFFFFF00
7FFFFFFF80
7000000380
E0000001C0
E0000001C0
E0000001C0
E0000001C0
E0000001C0
E0000001C0
E0000001C0
E0000001C0
E0000001C0
E0000001C0
E0000001C0
E0000001C0
E0200001C0
E0F00001C0
E0780001C0
E03C0001C0
E01E0001C0
E00F0001C0
E0078001C0
7003E00380
7F01FFFF80
3F00FFFF00
0F003FFC00
ENDCHAR
STARTCHAR 0052
ENCODING 82
SWIDTH 1121 0
DWIDTH 37 0
BBX 34 27 0 0
BITMAP
0FFFFFFFC0
3FFFFFFFC0
7FFFFFFFC0
7000000000
E000000000
E000000000
E000000000
E000000000
E000000000
E000000000
E000000000
E000000000
E000000000
E000000000
E000000000
E000000000
E000000000
E000000000
E000000000
E000000000
E000000000
E000000000
E000000000
E000000000
E000000000
E000000000
E000000000
ENDCHAR
STARTCHAR 0053
ENCODING 83
SWIDTH 1121 0
DWIDTH 37 0
BBX 34 27 0 0
BITMAP
0FFFFFFFC0
3FFFFFFFC0
7FFFFFFFC0
7000000000
E000000000
E000000000
E000000000
E000000000
E000000000
E000000000
E000000000
7000000000
7FFFFFFC00
3FFFFFFF00
0FFFFFFF80
0000000380
00000001C0
00000001C0
00000001C0
00000001C0
00000001C0
00000001C0
00000001C0
0000000380
FFFFFFFF80
FFFFFFFF00
FFFFFFFC00
ENDCHAR
STARTCHAR 0054
ENCODING 84
SWIDTH 1121 0
DWIDTH 37 0
BBX 34 37 0 0
BITMAP
E000000000
E000000000
E000000000
E000000000
E000000000
E000000000
E000000000
E000000000
E000000000
E000000000
FFFFFFFFC0
FFFFFFFFC0
FFFFFFFFC0
E000000000
E000000000
E000000000
E000000000
E000000000
E000000000
E000000000
E000000000
E000000000
E000000000
E000000000
E000000000
E000000000
E000000000
E000000000
E000000000
E000000000
E000000000
E000000000
E000000000
7000000000
7FFFFFFFC0
3FFFFFFFC0
0FFFFFFFC0
ENDCHAR
STARTCHAR 0055
ENCODING 85
SWIDTH 1121 0
DWIDTH 37 0
BBX 34 27 0 0
BITMAP
E0000001C0
E0000001C0
E0000001C0
E0000001C0
E0000001C0
E0000001C0
E0000001C0
E0000001C0
E0000001C0
E0000001C0
E0000001C0
E0000001C0
E0000001C0
E0000001C0
E0000001C0
E0000001C0
E0000001C0
E0000001C0
E0000001C0
E0000001C0
E0000001C0
E0000001C0
E0000001C0
7000000380
7FFFFFFF80
3FFFFFFF00
0FFFFFFC00
ENDCHAR
STARTCHAR 0056
ENCODING 86
SWIDTH 1121 0
DWIDTH 37 0
BBX 34 27 0 0
BITMAP
E0000001C0
E0000001C0
E0000001C0
E0000001C0
E0000001C0
E0000001C0
E0000001C0
E0000001C0
F0000001C0
78000001C0
7C000001C0
3E000001C0
1F000001C0
0F800001C0
07C00001C0
03E00001C0
01F00001C0
00F80001C0
007C0001C0
003E0001C0
001F0001C0
000F8001C0
0007C001C0
0003E00380
0001FFFF80
0000FFFF00
00003FFC00
ENDCHAR
STARTCHAR 0057
ENCODING 87
SWIDTH 1393 0
DWIDTH 46 0
BBX 43 27 0 0
BITMAP
E0000E0000E0
E0000E0000E0
E0000E0000E0
E0000E0000E0
E0000E0000E0
E0000E0000E0
E0000E0000E0
E0000E0000E0
E0000E0000E0
E0000E0000E0
E0000E0000E0
E0000E0000E0
E0000E0000E0
E0000E0000E0
E0000E0000E0
E0000E0000E0
E0000E0000E0
E0000E0000E0
E0000E0000E0
E0000E0000E0
E0000E0000E0
E0000E0000E0
E0000E0000E0
70000E0001C0
7FFFFFFFFFC0
3FFFFFFFFF80
0FFFFFFFFE00
ENDCHAR
STARTCHAR 0058
ENCODING 88
SWIDTH 1121 0
DWIDTH 37 0
BBX 34 27 0 1
BITMAP
F800000FC0
FE00001FC0
FF00007FC0
0F8000F800
03C001F000
01E003E000
00F007C000
00780F8000
003C1F0000
001E3E0000
000F7C0000
0007F80000
0003F00000
0003E00000
0007F00000
000FF80000
001F3C0000
003E1E0000
007C0F0000
00F8078000
01F003C000
03E001E000
07C000F000
0F80007800
FF00003FC0
FE00001FC0
F8000007C0
ENDCHAR
STARTCHAR 0059
ENCODING 89
SWIDTH 1121 0
DWIDTH 37 0
BBX 34 35 0 -8
BITMAP
E0000001C0
E0000001C0
E0000001C0
E0000001C0
E0000001C0
E0000001C0
E0000001C0
E0000001C0
F0000001C0
78000001C0
7C000001C0
3E000001C0
1F000001C0
0F800001C0
07C00001C0
03E00001C0
01F00001C0
00F80001C0
007C0001C0
003E0001C0
001F0001C0
000F8001C0
00078001C0
0003E001C0
0001FFFFC0
0000FFFFC0
00003FFFC0
00000001C0
00000001C0
00000001C0
00000001C0
00000001C0
00000001C0
00000001C0
00000001C0
ENDCHAR
STARTCHAR 005A
ENCODING 90
SWIDTH 1121 0
DWIDTH 37 0
BBX 34 27 0 0
BITMAP
FFFFFFFC00
FFFFFFFF00
FFFFFFFF80
0000000380
00000001C0
00000001C0
00000001C0
00000001C0
00000001C0
00000001C0
00000001C0
0000000380
0FFFFFFF80
3FFFFFFF00
7FFFFFFC00
7000000000
E000000000
E000000000
E000000000
E000000000
E000000000
E000000000
E000000000
7000000000
7FFFFFFFC0
3FFFFFFFC0
0FFFFFFFC0
ENDCHAR
STARTCHAR 005B
ENCODING 91
SWIDTH 818 0
DWIDTH 27 0
BBX 0 0 0 0
BITMAP
ENDCHAR
STARTCHAR 005C
ENCODING 92
SWIDTH 969 0
DWIDTH 32 0
BBX 32 27 0 1
BITMAP
F8000000
3C000000
1E000000
0F000000
07800000
03C00000
01E00000
00F00000
00780000
003C0000
001E0000
000F0000
00078000
0003C000
0001E000
0000F000
00007800
00003C00
00001E00
00000F80
000007C0
000003E0
000001F0
000000F8
0000007C
0000003E
0000001F
ENDCHAR
STARTCHAR 005D
ENCODING 93
SWIDTH 818 0
DWIDTH 27 0
BBX 0 0 0 0
BITMAP
ENDCHAR
STARTCHAR 005E
ENCODING 94
SWIDTH 818 0
DWIDTH 27 0
BBX 0 0 0 0
BITMAP
ENDCHAR
STARTCHAR 005F
ENCODING 95
SWIDTH 575 0
DWIDTH 19 0
BBX 16 3 0 0
BITMAP
FFFF
FFFF
FFFF
ENDCHAR
STARTCHAR 0061
ENCODING 97
SWIDTH 1121 0
DWIDTH 37 0
BBX 34 27 0 0
BITMAP
FFFFFFFC00
FFFFFFFF00
FFFFFFFF80
0001F00380
0003E001C0
0007C001C0
000F8001C0
001F0001C0
003E0001C0
007C0001C0
00F80001C0
01F00001C0
03E00001C0
07C00001C0
0F000001C0
1E000001C0
3C000001C0
78000001C0
70000001C0
E0000001C0
E0000001C0
E0000001C0
E0000001C0
7000000380
7FFFFFFF80
3FFFFFFF00
0FFFFFFC00
ENDCHAR
STARTCHAR 0062
ENCODING 98
SWIDTH 1121 0
DWIDTH 37 0
BBX 34 37 0 0
BITMAP
E000000000
E000000000
E000000000
E000000000
E000000000
E000000000
E000000000
E000000000
E000000000
E000000000
FFFFFFE000
FFFFFFF000
FFFFFFF800
E000003C00
E000001F00
E000000F80
E000000780
E0000003C0
E0000001C0
E0000001C0
E0000001C0
E0000001C0
E0000001C0
E0000001C0
E0000001C0
E0000001C0
E0000001C0
E0000001C0
E0000001C0
E0000001C0
E0000001C0
E0000001C0
E0000001C0
7000000380
7FFFFFFF80
3FFFFFFF00
0FFFFFFC00
ENDCHAR
STARTCHAR 0063
ENCODING 99
SWIDTH 1121 0
DWIDTH 37 0
BBX 34 27 0 0
BITMAP
0FFFFFFFC0
3FFFFFFFC0
7FFFFFFFC0
7000000000
E000000000
E000000000
E000000000
E000000000
E000000000
E000000000
E000000000
E000000000
E000000000
E000000000
E000000000
E000000000
E000000000
E000000000
E000000000
E000000000
E000000000
E000000000
E000000000
7000000000
7FFFFFFFC0
3FFFFFFFC0
0FFFFFFFC0
ENDCHAR
STARTCHAR 0064
ENCODING 100
SWIDTH 1121 0
DWIDTH 37 0
BBX 34 37 0 0
BITMAP
00000001C0
00000001C0
00000001C0
00000001C0
00000001C0
00000001C0
00000001C0
00000001C0
00000001C0
00000001C0
01FFFFFFC0
03FFFFFFC0
07FFFFFFC0
1F000001C0
3E000001C0
7C000001C0
78000001C0
F0000001C0
E0000001C0
E0000001C0
E0000001C0
E0000001C0
E0000001C0
E0000001C0
E0000001C0
E0000001C0
E0000001C0
E0000001C0
E0000001C0
E0000001C0
E0000001C0
E0000001C0
E0000001C0
7000000380
7FFFFFFF80
3FFFFFFF00
0FFFFFFC00
ENDCHAR
STARTCHAR 0065
ENCODING 101
SWIDTH 1121 0
DWIDTH 37 0
BBX 34 27 0 0
BITMAP
0FFFFFFC00
3FFFFFFF00
7FFFFFFF80
7000000380
E0000001C0
E0000001C0
E0000001C0
E0000001C0
E000000380
E000000780
E000000F00
E000001E00
E000003C00
E000007800
E00001F000
E00003E000
E00007C000
E0000F8000
E0001F0000
E0003E0000
E000780000
E000F00000
E001E00000
7003C00000
7FFFFFFFC0
3FFFFFFFC0
0FFFFFFFC0
ENDCHAR
STARTCHAR 0066
ENCODING 102
SWIDTH 1121 0
DWIDTH 37 0
BBX 34 27 0 0
BITMAP
0FFFFFFFC0
3FFFFFFFC0
7FFFFFFFC0
7000000000
E000000000
E000000000
E000000000
E000000000
E000000000
E000000000
E000000000
E000000000
E000000000
E000000000
E000000000
E000000000
E000000000
E000000000
FFFFFFFFC0
FFFFFFFFC0
FFFFFFFFC0
E000000000
E000000000
E000000000
E000000000
E000000000
E000000000
ENDCHAR
STARTCHAR 0067
ENCODING 103
SWIDTH 1121 0
DWIDTH 37 0
BBX 34 35 0 -8
BITMAP
0FFFFFFC00
3FFFFFFF00
7FFFFFFF80
7000000380
E0000001C0
E0000001C0
E0000001C0
E0000001C0
E0000001C0
E0000001C0
E0000001C0
E0000001C0
E0000001C0
E0000001C0
E0000001C0
E0000001C0
E0000001C0
E0000001C0
E0000001C0
E0000001C0
E0000001C0
E0000001C0
E0000001C0
70000001C0
7FFFFFFFC0
3FFFFFFFC0
0FFFFFFFC0
00000001C0
00000001C0
00000001C0
00000001C0
0000000380
FFFFFFFF80
FFFFFFFF00
FFFFFFFC00
ENDCHAR
STARTCHAR 0068
ENCODING 104
SWIDTH 1121 0
DWIDTH 37 0
BBX 34 37 0 0
BITMAP
E000000000
E000000000
E000000000
E000000000
E000000000
E000000000
E000000000
E000000000
E000000000
E000000000
FFFFFFE000
FFFFFFF000
FFFFFFF800
E000003C00
E000001F00
E000000F80
E000000780
E0000003C0
E0000001C0
E0000001C0
E0000001C0
E0000001C0
E0000001C0
E0000001C0
E0000001C0
E0000001C0
E0000001C0
E0000001C0
E0000001C0
E0000001C0
E0000001C0
E0000001C0
E0000001C0
E0000001C0
E0000001C0
E0000001C0
E0000001C0
ENDCHAR
STARTCHAR 0069
ENCODING 105
SWIDTH 181 0
DWIDTH 6 0
BBX 3 37 0 0
BITMAP
E0
E0
E0
E0
E0
00
00
00
00
00
E0
E0
E0
E0
E0
E0
E0
E0
E0
E0
E0
E0
E0
E0
E0
E0
E0
E0
E0
E0
E0
E0
E0
E0
E0
E0
E0
ENDCHAR
STARTCHAR 006A
ENCODING 106
SWIDTH 242 0
DWIDTH 8 0
BBX 13 47 -8 -10
BITMAP
0038
0038
0038
0038
0038
0000
0000
0000
0000
0000
0038
0038
0038
0038
0038
0038
0038
0038
0038
0038
0038
0038
0038
0038
0038
0038
0038
0038
0038
0038
0038
0038
0038
0038
0038
0038
0070
00F0
01E0
03C0
0780
0F00
3E00
7C00
F800
7000
2000
ENDCHAR
STARTCHAR 006B
ENCODING 107
SWIDTH 1242 0
DWIDTH 41 0
BBX 39 37 0 0
BITMAP
E000000000
E000000000
E000000000
E000000000
E000000000
E000000000
E000000000
E000000000
E000000000
E000000000
E0000000FE
E0000003FE
E0000007FE
E000000F00
E000001E00
E000003C00
E000007800
E00000F000
E00001F000
E00003F800
E00007BC00
E0000F1E00
E0001E0F00
E0003C0780
E0007803C0
E000F001E0
E001E000F0
E003C00078
E00780003C
E00F00001C
E01E00001C
E03C00001C
E07800001C
70F000001C
7FE000001C
3FC000001C
0F8000001C
ENDCHAR
STARTCHAR 006C
ENCODING 108
SWIDTH 1121 0
DWIDTH 37 0
BBX 34 27 0 0
BITMAP
E000000000
E000000000
E000000000
E000000000
E000000000
E000000000
E000000000
E000000000
E000000000
E000000000
E000000000
E000000000
E000000000
E000000000
E000000000
E000000000
E000000000
E000000000
E000000000
E000000000
E000000000
E000000000
E000000000
7000000000
7FFFFFFFC0
3FFFFFFFC0
0FFFFFFFC0
ENDCHAR
STARTCHAR 006D
ENCODING 109
SWIDTH 1393 0
DWIDTH 46 0
BBX 43 27 0 0
BITMAP
0FFFFFFFFE00
3FFFFFFFFF80
7FFFFFFFFFC0
70000E0001C0
E0000E0000E0
E0000E0000E0
E0000E0000E0
E0000E0000E0
E0000E0000E0
E0000E0000E0
E0000E0000E0
E0000E0000E0
E0000E0000E0
E0000E0000E0
E0000E0000E0
E0000E0000E0
E0000E0000E0
E0000E0000E0
E0000E0000E0
E0000E0000E0
E0000E0000E0
E0000E0000E0
E0000E0000E0
E0000E0000E0
E0000E0000E0
E0000E0000E0
E0000E0000E0
ENDCHAR
STARTCHAR 006E
ENCODING 110
SWIDTH 1121 0
DWIDTH 37 0
BBX 34 27 0 0
BITMAP
0FFFFFFC00
3FFFFFFF00
7FFFFFFF80
7000000380
E0000001C0
E0000001C0
E0000001C0
E0000001C0
E0000001C0
E0000001C0
E0000001C0
E0000001C0
E0000001C0
E0000001C0
E0000001C0
E0000001C0
E0000001C0
E0000001C0
E0000001C0
E0000001C0
E0000001C0
E0000001C0
E0000001C0
E0000001C0
E0000001C0
E0000001C0
E0000001C0
ENDCHAR
STARTCHAR 006F
ENCODING 111
SWIDTH 1121 0
DWIDTH 37 0
BBX 34 27 0 0
BITMAP
0FFFFFFC00
3FFFFFFF00
7FFFFFFF80
7000000380
E0000001C0
E0000001C0
E0000001C0
E0000001C0
E0000001C0
E0000001C0
E0000001C0
E0000001C0
E0000001C0
E0000001C0
E0000001C0
E0000001C0
E0000001C0
E0000001C0
E0000001C0
E0000001C0
E0000001C0
E0000001C0
E0000001C0
7000000380
7FFFFFFF80
3FFFFFFF00
0FFFFFFC00
ENDCHAR
STARTCHAR 0070
ENCODING 112
SWIDTH 1121 0
DWIDTH 37 0
BBX 34 35 0 -8
BITMAP
0FFFFFFC00
3FFFFFFF00
7FFFFFFF80
7000000380
E0000001C0
E0000001C0
E0000001C0
E0000001C0
E0000001C0
E0000001C0
E0000001C0
E0000001C0
E0000001C0
E0000001C0
E0000001C0
E0000001C0
E0000001C0
E0000001C0
E0000001C0
E0000001C0
E0000001C0
E0000001C0
E0000001C0
E000000380
FFFFFFFF80
FFFFFFFF00
FFFFFFFC00
E000000000
E000000000
E000000000
E000000000
E000000000
E000000000
E000000000
E000000000
ENDCHAR
STARTCHAR 0071
ENCODING 113
SWIDTH 1121 0
DWIDTH 37 0
BBX 34 27 0 0
BITMAP
0FFFFFFC00
3FFFFFFF00
7FFFFFFF80
7000000380
E0000001C0
E0000001C0
E0000001C0
E0000001C0
E0000001C0
E0000001C0
E0000001C0
E0000001C0
E0000001C0
E0000001C0
E0000001C0
E0000001C0
E0200001C0
E0F00001C0
E0780001C0
E03C0001C0
E01E0001C0
E00F0001C0
E0078001C0
7003E00380
7F01FFFF80
3F00FFFF00
0F003FFC00
ENDCHAR
STARTCHAR 0072
ENCODING 114
SWIDTH 1121 0
DWIDTH 37 0
BBX 34 27 0 0
BITMAP
0FFFFFFFC0
3FFFFFFFC0
7FFFFFFFC0
7000000000
E000000000
E000000000
E000000000
E000000000
E000000000
E000000000
E000000000
E000000000
E000000000
E000000000
E000000000
E000000000
E000000000
E000000000
E000000000
E000000000
E000000000
E000000000
E000000000
E000000000
E000000000
E000000000
E000000000
ENDCHAR
STARTCHAR 0073
ENCODING 115
SWIDTH 1121 0
DWIDTH 37 0
BBX 34 27 0 0
BITMAP
0FFFFFFFC0
3FFFFFFFC0
7FFFFFFFC0
7000000000
E000000000
E000000000
E000000000
E000000000
E000000000
E000000000
E000000000
7000000000
7FFFFFFC00
3FFFFFFF00
0FFFFFFF80
0000000380
00000001C0
00000001C0
00000001C0
00000001C0
00000001C0
00000001C0
00000001C0
0000000380
FFFFFFFF80
FFFFFFFF00
FFFFFFFC00
ENDCHAR
STARTCHAR 0074
ENCODING 116
SWIDTH 1121 0
DWIDTH 37 0
BBX 34 37 0 0
BITMAP
E000000000
E000000000
E000000000
E000000000
E000000000
E000000000
E000000000
E000000000
E000000000
E000000000
FFFFFFFFC0
FFFFFFFFC0
FFFFFFFFC0
E000000000
E000000000
E000000000
E000000000
E000000000
E000000000
E000000000
E000000000
E000000000
E000000000
E000000000
E000000000
E000000000
E000000000
E000000000
E000000000
E000000000
E000000000
E000000000
E000000000
7000000000
7FFFFFFFC0
3FFFFFFFC0
0FFFFFFFC0
ENDCHAR
STARTCHAR 0075
ENCODING 117
SWIDTH 1121 0
DWIDTH 37 0
BBX 34 27 0 0
BITMAP
E0000001C0
E0000001C0
E0000001C0
E0000001C0
E0000001C0
E0000001C0
E0000001C0
E0000001C0
E0000001C0
E0000001C0
E0000001C0
E0000001C0
E0000001C0
E0000001C0
E0000001C0
E0000001C0
E0000001C0
E0000001C0
E0000001C0
E0000001C0
E0000001C0
E0000001C0
E0000001C0
7000000380
7FFFFFFF80
3FFFFFFF00
0FFFFFFC00
ENDCHAR
STARTCHAR 0076
ENCODING 118
SWIDTH 1121 0
DWIDTH 37 0
BBX 34 27 0 0
BITMAP
E0000001C0
E0000001C0
E0000001C0
E0000001C0
E0000001C0
E0000001C0
E0000001C0
E0000001C0
E0000003C0
E000000780
E000000F00
E000001E00
E000003C00
E000007800
E00000F000
E00001E000
E00003C000
E000078000
E0000F0000
E0001E0000
E0003C0000
E000780000
E000F00000
7001E00000
7FFFC00000
3FFF800000
0FFF000000
ENDCHAR
STARTCHAR 0077
ENCODING 119
SWIDTH 1393 0
DWIDTH 46 0
BBX 43 27 0 0
BITMAP
E0000E0000E0
E0000E0000E0
E0000E0000E0
E0000E0000E0
E0000E0000E0
E0000E0000E0
E0000E0000E0
E0000E0000E0
E0000E0000E0
E0000E0000E0
E0000E0000E0
E0000E0000E0
E0000E0000E0
E0000E0000E0
E0000E0000E0
E0000E0000E0
E0000E0000E0
E0000E0000E0
E0000E0000E0
E0000E0000E0
E0000E0000E0
E0000E0000E0
E0000E0000E0
70000E0001C0
7FFFFFFFFFC0
3FFFFFFFFF80
0FFFFFFFFE00
ENDCHAR
STARTCHAR 0078
ENCODING 120
SWIDTH 1121 0
DWIDTH 37 0
BBX 34 27 0 1
BITMAP
F800000FC0
FE00001FC0
FF00007FC0
0F8000F800
03C001F000
01E003E000
00F007C000
00780F8000
003C1F0000
001E3E0000
000F7C0000
0007F80000
0003F00000
0003E00000
0007F00000
000FF80000
001F3C0000
003E1E0000
007C0F0000
00F8078000
01F003C000
03E001E000
07C000F000
0F80007800
FF00003FC0
FE00001FC0
F8000007C0
ENDCHAR
STARTCHAR 0079
ENCODING 121
SWIDTH 1121 0
DWIDTH 37 0
BBX 34 35 0 -8
BITMAP
E0000001C0
E0000001C0
E0000001C0
E0000001C0
E0000001C0
E0000001C0
E0000001C0
E0000001C0
F0000001C0
78000001C0
7C000001C0
3E000001C0
1F000001C0
0F800001C0
07C00001C0
03E00001C0
01F00001C0
00F80001C0
007C0001C0
003E0001C0
001F0001C0
000F8001C0
00078001C0
0003E001C0
0001FFFFC0
0000FFFFC0
00003FFFC0
00000001C0
00000001C0
00000001C0
00000001C0
00000001C0
00000001C0
00000001C0
00000001C0
ENDCHAR
STARTCHAR 007A
ENCODING 122
SWIDTH 1121 0
DWIDTH 37 0
BBX 34 27 0 0
BITMAP
FFFFFFFC00
FFFFFFFF00
FFFFFFFF80
0000000380
00000001C0
00000001C0
00000001C0
00000001C0
00000001C0
00000001C0
00000001C0
0000000380
0FFFFFFF80
3FFFFFFF00
7FFFFFFC00
7000000000
E000000000
E000000000
E000000000
E000000000
E000000000
E000000000
E000000000
7000000000
7FFFFFFFC0
3FFFFFFFC0
0FFFFFFFC0
ENDCHAR
STARTCHAR 007C
ENCODING 124
SWIDTH 515 0
DWIDTH 17 0
BBX 0 0 0 0
BITMAP
ENDCHAR
STARTCHAR 007E
ENCODING 126
SWIDTH 818 0
DWIDTH 27 0
BBX 0 0 0 0
BITMAP
ENDCHAR
STARTCHAR 00A0
ENCODING 160
SWIDTH 818 0
DWIDTH 27 0
BBX 0 0 0 0
BITMAP
ENDCHAR
STARTCHAR 00A9
ENCODING 169
SWIDTH 1121 0
DWIDTH 37 0
BBX 34 27 0 0
BITMAP
0FFFFFFC00
3FFFFFFF00
7FFFFFFF80
7000000380
E0000001C0
E0000001C0
E03FFFC1C0
E07FFFC1C0
E0FFFFC1C0
E0E00001C0
E0E00001C0
E0E00001C0
E0E00001C0
E0E00001C0
E0E00001C0
E0E00001C0
E0E00001C0
E0E00001C0
E0FFFFC1C0
E07FFFC1C0
E03FFFC1C0
E0000001C0
E0000001C0
7000000380
7FFFFFFF80
3FFFFFFF00
0FFFFFFC00
ENDCHAR
STARTCHAR 00AD
ENCODING 173
SWIDTH 575 0
DWIDTH 19 0
BBX 16 3 0 12
BITMAP
FFFF
FFFF
FFFF
ENDCHAR
STARTCHAR 00AE
ENCODING 174
SWIDTH 1121 0
DWIDTH 37 0
BBX 34 27 0 0
BITMAP
0FFFFFFC00
3FFFFFFF00
7FFFFFFF80
7000000380
E0000001C0
E0000001C0
E03FFFC1C0
E07FFFC1C0
E0FFFFC1C0
E0E00001C0
E0E00001C0
E0E00001C0
E0E00001C0
E0E00001C0
E0E00001C0
E0E00001C0
E0E00001C0
E0E00001C0
E0E00001C0
E0E00001C0
E0E00001C0
E0000001C0
E0000001C0
7000000380
7FFFFFFF80
3FFFFFFF00
0FFFFFFC00
ENDCHAR
STARTCHAR 00C4
ENCODING 196
SWIDTH 1121 0
DWIDTH 37 0
BBX 34 33 0 0
BITMAP
07C003E000
07C003E000
07C003E000
0000000000
0000000000
FFFFFFFC00
FFFFFFFF00
FFFFFFFF80
0001F00380
0003E001C0
0007C001C0
000F8001C0
001F0001C0
003E0001C0
007C0001C0
00F80001C0
01F00001C0
03E00001C0
07C00001C0
07800001C0
0F000001C0
1E000001C0
3C000001C0
78000001C0
F0000001C0
E0000001C0
E0000001C0
E0000001C0
E0000001C0
7000000380
7FFFFFFF80
3FFFFFFF00
0FFFFFFC00
ENDCHAR
STARTCHAR 00D6
ENCODING 214
SWIDTH 1121 0
DWIDTH 37 0
BBX 34 33 0 0
BITMAP
07C003E000
07C003E000
07C003E000
0000000000
0000000000
0FFFFFFC00
3FFFFFFF00
7FFFFFFF80
7000000380
E0000001C0
E0000001C0
E0000001C0
E0000001C0
E0000001C0
E0000001C0
E0000001C0
E0000001C0
E0000001C0
E0000001C0
E0000001C0
E0000001C0
E0000001C0
E0000001C0
E0000001C0
E0000001C0
E0000001C0
E0000001C0
E0000001C0
E0000001C0
7000000380
7FFFFFFF80
3FFFFFFF00
0FFFFFFC00
ENDCHAR
STARTCHAR 00D7
ENCODING 215
SWIDTH 0 0
DWIDTH 0 0
BBX 0 0 0 0
BITMAP
ENDCHAR
STARTCHAR 00DC
ENCODING 220
SWIDTH 1121 0
DWIDTH 37 0
BBX 34 33 0 0
BITMAP
07C003E000
07C003E000
07C003E000
0000000000
0000000000
0000000000
E0000001C0
E0000001C0
E0000001C0
E0000001C0
E0000001C0
E0000001C0
E0000001C0
E0000001C0
E0000001C0
E0000001C0
E0000001C0
E0000001C0
E0000001C0
E0000001C0
E0000001C0
E0000001C0
E0000001C0
E0000001C0
E0000001C0
E0000001C0
E0000001C0
E0000001C0
E0000001C0
7000000380
7FFFFFFF80
3FFFFFFF00
0FFFFFFC00
ENDCHAR
STARTCHAR 00E4
ENCODING 228
SWIDTH 1121 0
DWIDTH 37 0
BBX 34 33 0 0
BITMAP
07C003E000
07C003E000
07C003E000
0000000000
0000000000
FFFFFFFC00
FFFFFFFF00
FFFFFFFF80
0001F00380
0003E001C0
0007C001C0
000F8001C0
001F0001C0
003E0001C0
007C0001C0
00F80001C0
01F00001C0
03E00001C0
07C00001C0
07800001C0
0F000001C0
1E000001C0
3C000001C0
78000001C0
F0000001C0
E0000001C0
E0000001C0
E0000001C0
E0000001C0
7000000380
7FFFFFFF80
3FFFFFFF00
0FFFFFFC00
ENDCHAR
STARTCHAR 00EB
ENCODING 235
SWIDTH 1151 0
DWIDTH 38 0
BBX 0 0 0 0
BITMAP
ENDCHAR
STARTCHAR 00F6
ENCODING 246
SWIDTH 1121 0
DWIDTH 37 0
BBX 34 33 0 0
BITMAP
07C003E000
07C003E000
07C003E000
0000000000
0000000000
0FFFFFFC00
3FFFFFFF00
7FFFFFFF80
7000000380
E0000001C0
E0000001C0
E0000001C0
E0000001C0
E0000001C0
E0000001C0
E0000001C0
E0000001C0
E0000001C0
E0000001C0
E0000001C0
E0000001C0
E0000001C0
E0000001C0
E0000001C0
E0000001C0
E0000001C0
E0000001C0
E0000001C0
E0000001C0
7000000380
7FFFFFFF80
3FFFFFFF00
0FFFFFFC00
ENDCHAR
STARTCHAR 00FC
ENCODING 252
SWIDTH 1121 0
DWIDTH 37 0
BBX 34 33 0 0
BITMAP
07C003E000
07C003E000
07C003E000
0000000000
0000000000
0000000000
E0000001C0
E0000001C0
E0000001C0
E0000001C0
E0000001C0
E0000001C0
E0000001C0
E0000001C0
E0000001C0
E0000001C0
E0000001C0
E0000001C0
E0000001C0
E0000001C0
E0000001C0
E0000001C0
E0000001C0
E0000001C0
E0000001C0
E0000001C0
E0000001C0
E0000001C0
E0000001C0
7000000380
7FFFFFFF80
3FFFFFFF00
0FFFFFFC00
ENDCHAR
STARTCHAR 00FD
ENCODING 253
SWIDTH 0 0
DWIDTH 0 0
BBX 0 0 0 0
BITMAP
ENDCHAR
STARTCHAR 0141
ENCODING 321
SWIDTH 0 0
DWIDTH 0 0
BBX 0 0 0 0
BITMAP
ENDCHAR
ENDFONT
